# xmcd
#
# Track frame offsets: 
#        300
#        29030
#        64355
#        72342
#        82297
#        90626
#        100187
#
# Disc length: 1690 seconds
#
# Revision: 0
# Processed by: cddbd v1.5.2PL0 Copyright (c) Steve Scherf et al.
# Submitted via: ExactAudioCopy v1.0b3
#
DISCID=66069607
DTITLE=Fire to Fields \\ Dirtpill - Fire to Fields, Demo 2009 \\ Somed
DTITLE=evil, Demo 2008
DYEAR=2012
DGENRE=Sludge
TTITLE0=Fire to Fields - Fire to Fields
TTITLE1=Fire to Fields - Depress [EHG cover]
TTITLE2=Dirtpill - Tomorrow's Hunger
TTITLE3=Dirtpill - Bottom
TTITLE4=Dirtpill - Mites Doctrine
TTITLE5=Dirtpill - Uxmal
TTITLE6=Dirtpill - Crawl Space
EXTD=
EXTT0=
EXTT1=
EXTT2=
EXTT3=
EXTT4=
EXTT5=
EXTT6=
PLAYORDER=
